<mxfile host="app.diagrams.net" agent="Mozilla/5.0 (X11; Linux x86_64) AppleWebKit/537.36 (KHTML, like Gecko) Chrome/129.0.0.0 Safari/537.36" version="24.7.17">
  <diagram name="Page-1" id="ZBur0fjKNFBw_0y75Bmf">
    <mxGraphModel dx="2218" dy="1851" grid="1" gridSize="10" guides="1" tooltips="1" connect="1" arrows="1" fold="1" page="1" pageScale="1" pageWidth="850" pageHeight="1100" math="0" shadow="0">
      <root>
        <mxCell id="0" />
        <mxCell id="1" parent="0" />
        <mxCell id="cMZtud3tDp4GMQmx9d0e-1" value="Counter" style="rounded=0;whiteSpace=wrap;html=1;" vertex="1" parent="1">
          <mxGeometry x="-122" y="216" width="120" height="60" as="geometry" />
        </mxCell>
        <mxCell id="cMZtud3tDp4GMQmx9d0e-2" value="Accumulator" style="rounded=0;whiteSpace=wrap;html=1;" vertex="1" parent="1">
          <mxGeometry x="72" y="76" width="120" height="60" as="geometry" />
        </mxCell>
        <mxCell id="cMZtud3tDp4GMQmx9d0e-3" value="Counter" style="rounded=0;whiteSpace=wrap;html=1;" vertex="1" parent="1">
          <mxGeometry x="-122" y="28" width="120" height="60" as="geometry" />
        </mxCell>
        <mxCell id="cMZtud3tDp4GMQmx9d0e-4" value="Counter" style="rounded=0;whiteSpace=wrap;html=1;" vertex="1" parent="1">
          <mxGeometry x="-122" y="-67" width="120" height="60" as="geometry" />
        </mxCell>
        <mxCell id="cMZtud3tDp4GMQmx9d0e-5" value="" style="shape=waypoint;sketch=0;fillStyle=solid;size=6;pointerEvents=1;points=[];fillColor=none;resizable=0;rotatable=0;perimeter=centerPerimeter;snapToPoint=1;" vertex="1" parent="1">
          <mxGeometry x="-72" y="105" width="20" height="20" as="geometry" />
        </mxCell>
        <mxCell id="cMZtud3tDp4GMQmx9d0e-6" value="" style="shape=waypoint;sketch=0;fillStyle=solid;size=6;pointerEvents=1;points=[];fillColor=none;resizable=0;rotatable=0;perimeter=centerPerimeter;snapToPoint=1;" vertex="1" parent="1">
          <mxGeometry x="-72" y="142" width="20" height="20" as="geometry" />
        </mxCell>
        <mxCell id="cMZtud3tDp4GMQmx9d0e-7" value="" style="shape=waypoint;sketch=0;fillStyle=solid;size=6;pointerEvents=1;points=[];fillColor=none;resizable=0;rotatable=0;perimeter=centerPerimeter;snapToPoint=1;" vertex="1" parent="1">
          <mxGeometry x="-72" y="179" width="20" height="20" as="geometry" />
        </mxCell>
        <mxCell id="cMZtud3tDp4GMQmx9d0e-11" value="" style="endArrow=classic;html=1;rounded=0;entryX=0.25;entryY=0;entryDx=0;entryDy=0;exitX=1;exitY=0.5;exitDx=0;exitDy=0;strokeWidth=3;" edge="1" parent="1" source="cMZtud3tDp4GMQmx9d0e-4" target="cMZtud3tDp4GMQmx9d0e-2">
          <mxGeometry width="50" height="50" relative="1" as="geometry">
            <mxPoint x="-244" y="338" as="sourcePoint" />
            <mxPoint x="-194" y="288" as="targetPoint" />
          </mxGeometry>
        </mxCell>
        <mxCell id="cMZtud3tDp4GMQmx9d0e-12" value="" style="endArrow=classic;html=1;rounded=0;entryX=0;entryY=0.5;entryDx=0;entryDy=0;exitX=1;exitY=0.5;exitDx=0;exitDy=0;strokeWidth=3;" edge="1" parent="1" source="cMZtud3tDp4GMQmx9d0e-3" target="cMZtud3tDp4GMQmx9d0e-2">
          <mxGeometry width="50" height="50" relative="1" as="geometry">
            <mxPoint x="8" y="-27" as="sourcePoint" />
            <mxPoint x="112" y="86" as="targetPoint" />
          </mxGeometry>
        </mxCell>
        <mxCell id="cMZtud3tDp4GMQmx9d0e-13" value="" style="endArrow=classic;html=1;rounded=0;entryX=0.25;entryY=1;entryDx=0;entryDy=0;exitX=1;exitY=0.5;exitDx=0;exitDy=0;strokeWidth=3;" edge="1" parent="1" source="cMZtud3tDp4GMQmx9d0e-1" target="cMZtud3tDp4GMQmx9d0e-2">
          <mxGeometry width="50" height="50" relative="1" as="geometry">
            <mxPoint x="8" y="68" as="sourcePoint" />
            <mxPoint x="82" y="116" as="targetPoint" />
          </mxGeometry>
        </mxCell>
      </root>
    </mxGraphModel>
  </diagram>
</mxfile>
